<svg width="1440" height="1440" viewBox="0 0 1440 1440" fill="none" xmlns="http://www.w3.org/2000/svg">
<mask id="mask0_2_176" style="mask-type:alpha" maskUnits="userSpaceOnUse" x="119" y="219" width="1050" height="502">
<path fill-rule="evenodd" clip-rule="evenodd" d="M569.557 271.443C606.068 240.002 640.934 225.008 688.632 220H1086.43H1121H1168C1113.72 238.248 1082.81 261.606 1036.66 304.339L667.282 673.718C632.96 701.657 599.377 715.275 554.368 720H121L569.557 271.443Z" fill="#878787"/>
<path d="M688.632 220V219.5H688.606L688.58 219.503L688.632 220ZM569.557 271.443L569.23 271.065L569.216 271.077L569.203 271.09L569.557 271.443ZM1168 220L1168.16 220.474L1168 219.5V220ZM1036.66 304.339L1036.32 303.972L1036.31 303.978L1036.31 303.985L1036.66 304.339ZM667.282 673.718L667.597 674.106L667.617 674.09L667.635 674.072L667.282 673.718ZM554.368 720V720.5H554.394L554.42 720.497L554.368 720ZM121 720L120.646 719.646L119.793 720.5H121V720ZM688.58 219.503C640.781 224.521 605.819 239.557 569.23 271.065L569.883 271.822C606.317 240.448 641.087 225.494 688.684 220.497L688.58 219.503ZM1086.43 219.5H688.632V220.5H1086.43V219.5ZM1121 219.5H1086.43V220.5H1121V219.5ZM1168 219.5H1121V220.5H1168V219.5ZM1037 304.706C1083.13 261.995 1113.98 238.689 1168.16 220.474L1167.84 219.526C1113.47 237.806 1082.5 261.217 1036.32 303.972L1037 304.706ZM667.635 674.072L1037.01 304.692L1036.31 303.985L666.928 673.365L667.635 674.072ZM554.42 720.497C599.522 715.762 633.198 702.108 667.597 674.106L666.966 673.331C632.723 701.205 599.232 714.787 554.316 719.503L554.42 720.497ZM121 720.5H554.368V719.5H121V720.5ZM569.203 271.09L120.646 719.646L121.354 720.354L569.91 271.797L569.203 271.09Z" fill="black"/>
</mask>
<g mask="url(#mask0_2_176)">
<path fill-rule="evenodd" clip-rule="evenodd" d="M650.557 271.443C687.068 240.002 721.934 225.008 769.632 220H1167.43H1202H1249C1194.72 238.248 1163.81 261.606 1117.66 304.339L748.282 673.718C713.96 701.657 680.377 715.275 635.368 720H202L650.557 271.443Z" fill="white"/>
<path d="M769.632 220V219.5H769.606L769.58 219.503L769.632 220ZM650.557 271.443L650.23 271.065L650.216 271.077L650.203 271.09L650.557 271.443ZM1249 220L1249.16 220.474L1249 219.5V220ZM1117.66 304.339L1117.32 303.972L1117.31 303.978L1117.31 303.985L1117.66 304.339ZM748.282 673.718L748.597 674.106L748.617 674.09L748.635 674.072L748.282 673.718ZM635.368 720V720.5H635.394L635.42 720.497L635.368 720ZM202 720L201.646 719.646L200.793 720.5H202V720ZM769.58 219.503C721.781 224.521 686.819 239.557 650.23 271.065L650.883 271.822C687.317 240.448 722.087 225.494 769.684 220.497L769.58 219.503ZM1167.43 219.5H769.632V220.5H1167.43V219.5ZM1202 219.5H1167.43V220.5H1202V219.5ZM1249 219.5H1202V220.5H1249V219.5ZM1118 304.706C1164.13 261.995 1194.98 238.689 1249.16 220.474L1248.84 219.526C1194.47 237.806 1163.5 261.217 1117.32 303.972L1118 304.706ZM748.635 674.072L1118.01 304.692L1117.31 303.985L747.928 673.365L748.635 674.072ZM635.42 720.497C680.522 715.762 714.198 702.108 748.597 674.106L747.966 673.331C713.723 701.205 680.232 714.787 635.316 719.503L635.42 720.497ZM202 720.5H635.368V719.5H202V720.5ZM650.203 271.09L201.646 719.646L202.354 720.354L650.91 271.797L650.203 271.09Z" fill="white"/>
</g>
<mask id="mask1_2_176" style="mask-type:alpha" maskUnits="userSpaceOnUse" x="271" y="719" width="1050" height="502">
<path fill-rule="evenodd" clip-rule="evenodd" d="M870.443 1168.56C833.932 1200 799.066 1214.99 751.368 1220H353.567H319H272C326.277 1201.75 357.189 1178.39 403.339 1135.66L772.718 766.282C807.04 738.343 840.623 724.725 885.632 720H1319L870.443 1168.56Z" fill="#878787"/>
<path d="M751.368 1220V1220.5H751.394L751.42 1220.5L751.368 1220ZM870.443 1168.56L870.77 1168.94L870.784 1168.92L870.797 1168.91L870.443 1168.56ZM272 1220L271.841 1219.53L272 1220.5V1220ZM403.339 1135.66L403.678 1136.03L403.685 1136.02L403.692 1136.01L403.339 1135.66ZM772.718 766.282L772.403 765.894L772.383 765.91L772.365 765.928L772.718 766.282ZM885.632 720V719.5H885.606L885.58 719.503L885.632 720ZM1319 720L1319.35 720.354L1320.21 719.5H1319V720ZM751.42 1220.5C799.219 1215.48 834.181 1200.44 870.77 1168.94L870.117 1168.18C833.683 1199.55 798.913 1214.51 751.316 1219.5L751.42 1220.5ZM353.567 1220.5H751.368V1219.5H353.567V1220.5ZM319 1220.5H353.567V1219.5H319V1220.5ZM272 1220.5H319V1219.5H272V1220.5ZM402.999 1135.29C356.873 1178.01 326.022 1201.31 271.841 1219.53L272.159 1220.47C326.532 1202.19 357.505 1178.78 403.678 1136.03L402.999 1135.29ZM772.365 765.928L402.985 1135.31L403.692 1136.01L773.072 766.635L772.365 765.928ZM885.58 719.503C840.478 724.238 806.802 737.892 772.403 765.894L773.034 766.669C807.277 738.795 840.768 725.213 885.684 720.497L885.58 719.503ZM1319 719.5H885.632V720.5H1319V719.5ZM870.797 1168.91L1319.35 720.354L1318.65 719.646L870.09 1168.2L870.797 1168.91Z" fill="black"/>
</mask>
<g mask="url(#mask1_2_176)">
<path fill-rule="evenodd" clip-rule="evenodd" d="M789.443 1168.56C752.932 1200 718.066 1214.99 670.368 1220H272.567H238H191C245.277 1201.75 276.189 1178.39 322.339 1135.66L691.718 766.282C726.04 738.343 759.623 724.725 804.632 720H1238L789.443 1168.56Z" fill="white"/>
<path d="M670.368 1220V1220.5H670.394L670.42 1220.5L670.368 1220ZM789.443 1168.56L789.77 1168.94L789.784 1168.92L789.797 1168.91L789.443 1168.56ZM191 1220L190.841 1219.53L191 1220.5V1220ZM322.339 1135.66L322.678 1136.03L322.685 1136.02L322.692 1136.01L322.339 1135.66ZM691.718 766.282L691.403 765.894L691.383 765.91L691.365 765.928L691.718 766.282ZM804.632 720V719.5H804.606L804.58 719.503L804.632 720ZM1238 720L1238.35 720.354L1239.21 719.5H1238V720ZM670.42 1220.5C718.219 1215.48 753.181 1200.44 789.77 1168.94L789.117 1168.18C752.683 1199.55 717.913 1214.51 670.316 1219.5L670.42 1220.5ZM272.567 1220.5H670.368V1219.5H272.567V1220.5ZM238 1220.5H272.567V1219.5H238V1220.5ZM191 1220.5H238V1219.5H191V1220.5ZM321.999 1135.29C275.873 1178.01 245.022 1201.31 190.841 1219.53L191.159 1220.47C245.532 1202.19 276.505 1178.78 322.678 1136.03L321.999 1135.29ZM691.365 765.928L321.985 1135.31L322.692 1136.01L692.072 766.635L691.365 765.928ZM804.58 719.503C759.478 724.238 725.802 737.892 691.403 765.894L692.034 766.669C726.277 738.795 759.768 725.213 804.684 720.497L804.58 719.503ZM1238 719.5H804.632V720.5H1238V719.5ZM789.797 1168.91L1238.35 720.354L1237.65 719.646L789.09 1168.2L789.797 1168.91Z" fill="white"/>
</g>
<mask id="mask2_2_176" style="mask-type:alpha" maskUnits="userSpaceOnUse" x="753" y="1019" width="416" height="202">
<path fill-rule="evenodd" clip-rule="evenodd" d="M990.348 1199.42C975.928 1212 962.158 1218 943.321 1220H786.214H772.562H754C775.436 1212.7 787.644 1203.36 805.87 1186.26L951.753 1038.51C965.308 1027.34 978.571 1021.89 996.347 1020H1167.5L990.348 1199.42Z" fill="#878787"/>
<path d="M943.321 1220V1220.5H943.347L943.373 1220.5L943.321 1220ZM990.348 1199.42L990.677 1199.8L990.691 1199.79L990.704 1199.77L990.348 1199.42ZM754 1220L753.839 1219.53L754 1220.5V1220ZM805.87 1186.26L806.213 1186.63L806.22 1186.62L806.226 1186.62L805.87 1186.26ZM951.753 1038.51L951.435 1038.13L951.415 1038.14L951.397 1038.16L951.753 1038.51ZM996.347 1020V1019.5H996.32L996.294 1019.5L996.347 1020ZM1167.5 1020L1167.86 1020.35L1168.7 1019.5H1167.5V1020ZM943.373 1220.5C962.314 1218.48 976.18 1212.44 990.677 1199.8L990.02 1199.05C975.677 1211.56 962.003 1217.51 943.268 1219.5L943.373 1220.5ZM786.214 1220.5H943.321V1219.5H786.214V1220.5ZM772.562 1220.5H786.214V1219.5H772.562V1220.5ZM754 1220.5H772.562V1219.5H754V1220.5ZM805.528 1185.9C787.326 1202.97 775.178 1212.26 753.839 1219.53L754.161 1220.47C775.694 1213.14 787.963 1203.74 806.213 1186.63L805.528 1185.9ZM951.397 1038.16L805.515 1185.91L806.226 1186.62L952.109 1038.86L951.397 1038.16ZM996.294 1019.5C978.424 1021.4 965.068 1026.89 951.435 1038.13L952.071 1038.9C965.547 1027.79 978.718 1022.38 996.399 1020.5L996.294 1019.5ZM1167.5 1019.5H996.347V1020.5H1167.5V1019.5ZM990.704 1199.77L1167.86 1020.35L1167.14 1019.65L989.992 1199.07L990.704 1199.77Z" fill="black"/>
</mask>
<g mask="url(#mask2_2_176)">
<path fill-rule="evenodd" clip-rule="evenodd" d="M958.358 1199.42C943.938 1212 930.168 1218 911.331 1220H754.224H740.572H722.01C743.446 1212.7 755.654 1203.36 773.88 1186.26L919.763 1038.51C933.318 1027.34 946.581 1021.89 964.357 1020H1135.51L958.358 1199.42Z" fill="white"/>
<path d="M911.331 1220V1220.5H911.357L911.383 1220.5L911.331 1220ZM958.358 1199.42L958.687 1199.8L958.701 1199.79L958.714 1199.77L958.358 1199.42ZM722.01 1220L721.849 1219.53L722.01 1220.5V1220ZM773.88 1186.26L774.223 1186.63L774.23 1186.62L774.236 1186.62L773.88 1186.26ZM919.763 1038.51L919.445 1038.13L919.425 1038.14L919.407 1038.16L919.763 1038.51ZM964.357 1020V1019.5H964.33L964.304 1019.5L964.357 1020ZM1135.51 1020L1135.87 1020.35L1136.71 1019.5H1135.51V1020ZM911.383 1220.5C930.324 1218.48 944.19 1212.44 958.687 1199.8L958.03 1199.05C943.687 1211.56 930.013 1217.51 911.278 1219.5L911.383 1220.5ZM754.224 1220.5H911.331V1219.5H754.224V1220.5ZM740.572 1220.5H754.224V1219.5H740.572V1220.5ZM722.01 1220.5H740.572V1219.5H722.01V1220.5ZM773.538 1185.9C755.336 1202.97 743.188 1212.26 721.849 1219.53L722.171 1220.47C743.704 1213.14 755.973 1203.74 774.223 1186.63L773.538 1185.9ZM919.407 1038.16L773.525 1185.91L774.236 1186.62L920.119 1038.86L919.407 1038.16ZM964.304 1019.5C946.434 1021.4 933.078 1026.89 919.445 1038.13L920.081 1038.9C933.557 1027.79 946.728 1022.38 964.409 1020.5L964.304 1019.5ZM1135.51 1019.5H964.357V1020.5H1135.51V1019.5ZM958.714 1199.77L1135.87 1020.35L1135.15 1019.65L958.002 1199.07L958.714 1199.77Z" fill="white"/>
</g>
</svg>
