<svg width="415" height="202" viewBox="0 0 415 202" fill="none" xmlns="http://www.w3.org/2000/svg">
<mask id="mask0_2_155" style="mask-type:alpha" maskUnits="userSpaceOnUse" x="0" y="0" width="416" height="202">
<path fill-rule="evenodd" clip-rule="evenodd" d="M237.348 180.422C222.928 192.999 209.158 198.997 190.321 201H33.214H19.5621H1.00003C22.436 193.701 34.6443 184.358 52.8705 167.265L198.753 19.5125C212.308 8.33722 225.571 2.89014 243.347 1H414.5L237.348 180.422Z" fill="#878787"/>
<path d="M190.321 201V201.5H190.347L190.373 201.497L190.321 201ZM237.348 180.422L237.677 180.799L237.691 180.787L237.704 180.774L237.348 180.422ZM1.00003 201L0.838865 200.527L1.00003 201.5V201ZM52.8705 167.265L53.2125 167.629L53.2195 167.623L53.2263 167.616L52.8705 167.265ZM198.753 19.5125L198.435 19.1268L198.415 19.143L198.397 19.1612L198.753 19.5125ZM243.347 1V0.5H243.32L243.294 0.502803L243.347 1ZM414.5 1L414.856 1.35129L415.696 0.5H414.5V1ZM190.373 201.497C209.314 199.483 223.18 193.443 237.677 180.799L237.02 180.046C222.677 192.555 209.003 198.511 190.268 200.503L190.373 201.497ZM33.214 201.5H190.321V200.5H33.214V201.5ZM19.5621 201.5H33.214V200.5H19.5621V201.5ZM1.00003 201.5H19.5621V200.5H1.00003V201.5ZM52.5284 166.9C34.3258 183.971 22.1784 193.26 0.838865 200.527L1.1612 201.473C22.6935 194.141 34.9629 184.744 53.2125 167.629L52.5284 166.9ZM198.397 19.1612L52.5147 166.913L53.2263 167.616L199.109 19.8638L198.397 19.1612ZM243.294 0.502803C225.424 2.40292 212.068 7.88688 198.435 19.1268L199.071 19.8983C212.547 8.78755 225.718 3.37735 243.399 1.4972L243.294 0.502803ZM414.5 0.5H243.347V1.5H414.5V0.5ZM237.704 180.774L414.856 1.35129L414.144 0.648705L236.992 180.071L237.704 180.774Z" fill="black"/>
</mask>
<g mask="url(#mask0_2_155)">
<path fill-rule="evenodd" clip-rule="evenodd" d="M205.358 180.422C190.938 192.999 177.168 198.997 158.331 201H1.22397H-12.4279H-30.99C-9.55402 193.701 2.65436 184.358 20.8805 167.265L166.763 19.5125C180.318 8.33722 193.581 2.89014 211.357 1H382.51L205.358 180.422Z" fill="white"/>
<path d="M158.331 201V201.5H158.357L158.383 201.497L158.331 201ZM205.358 180.422L205.687 180.799L205.701 180.787L205.714 180.774L205.358 180.422ZM-30.99 201L-31.1511 200.527L-30.99 201.5V201ZM20.8805 167.265L21.2225 167.629L21.2295 167.623L21.2363 167.616L20.8805 167.265ZM166.763 19.5125L166.445 19.1268L166.425 19.143L166.407 19.1612L166.763 19.5125ZM211.357 1V0.5H211.33L211.304 0.502803L211.357 1ZM382.51 1L382.866 1.35129L383.706 0.5H382.51V1ZM158.383 201.497C177.324 199.483 191.19 193.443 205.687 180.799L205.03 180.046C190.687 192.555 177.013 198.511 158.278 200.503L158.383 201.497ZM1.22397 201.5H158.331V200.5H1.22397V201.5ZM-12.4279 201.5H1.22397V200.5H-12.4279V201.5ZM-30.99 201.5H-12.4279V200.5H-30.99V201.5ZM20.5385 166.9C2.33577 183.971 -9.81159 193.26 -31.1511 200.527L-30.8288 201.473C-9.29644 194.141 2.97294 184.744 21.2225 167.629L20.5385 166.9ZM166.407 19.1612L20.5247 166.913L21.2363 167.616L167.119 19.8638L166.407 19.1612ZM211.304 0.502803C193.434 2.40292 180.078 7.88688 166.445 19.1268L167.081 19.8983C180.557 8.78755 193.728 3.37735 211.409 1.4972L211.304 0.502803ZM382.51 0.5H211.357V1.5H382.51V0.5ZM205.714 180.774L382.866 1.35129L382.154 0.648705L205.002 180.071L205.714 180.774Z" fill="white"/>
</g>
</svg>
