<svg width="1198" height="1002" viewBox="0 0 1198 1002" fill="none" xmlns="http://www.w3.org/2000/svg">
<mask id="mask0_2_177" style="mask-type:alpha" maskUnits="userSpaceOnUse" x="-2" y="0" width="1050" height="502">
<path fill-rule="evenodd" clip-rule="evenodd" d="M448.557 52.4435C485.068 21.0021 519.934 6.00771 567.632 1H965.433H1000H1047C992.723 19.2477 961.811 42.6057 915.661 85.3387L546.282 454.718C511.96 482.657 478.377 496.275 433.368 501H0L448.557 52.4435Z" fill="#878787"/>
<path d="M567.632 1V0.5H567.606L567.58 0.502733L567.632 1ZM448.557 52.4435L448.23 52.0646L448.216 52.0768L448.203 52.0899L448.557 52.4435ZM1047 1L1047.16 1.47393L1047 0.5V1ZM915.661 85.3387L915.322 84.9718L915.315 84.9783L915.308 84.9851L915.661 85.3387ZM546.282 454.718L546.597 455.106L546.617 455.09L546.635 455.072L546.282 454.718ZM433.368 501V501.5H433.394L433.42 501.497L433.368 501ZM0 501L-0.353553 500.646L-1.20711 501.5H0V501ZM567.58 0.502733C519.781 5.52105 484.819 20.5566 448.23 52.0646L448.883 52.8224C485.317 21.4475 520.087 6.49437 567.684 1.49727L567.58 0.502733ZM965.433 0.5H567.632V1.5H965.433V0.5ZM1000 0.5H965.433V1.5H1000V0.5ZM1047 0.5H1000V1.5H1047V0.5ZM916.001 85.7055C962.127 42.9945 992.978 19.6895 1047.16 1.47393L1046.84 0.526067C992.468 18.806 961.495 42.2168 915.322 84.9718L916.001 85.7055ZM546.635 455.072L916.015 85.6922L915.308 84.9851L545.928 454.365L546.635 455.072ZM433.42 501.497C478.522 496.762 512.198 483.108 546.597 455.106L545.966 454.331C511.723 482.205 478.232 495.787 433.316 500.503L433.42 501.497ZM0 501.5H433.368V500.5H0V501.5ZM448.203 52.0899L-0.353553 500.646L0.353553 501.354L448.91 52.7971L448.203 52.0899Z" fill="black"/>
</mask>
<g mask="url(#mask0_2_177)">
<path fill-rule="evenodd" clip-rule="evenodd" d="M529.557 52.4435C566.068 21.0021 600.934 6.00771 648.632 1H1046.43H1081H1128C1073.72 19.2477 1042.81 42.6057 996.661 85.3387L627.282 454.718C592.96 482.657 559.377 496.275 514.368 501H81L529.557 52.4435Z" fill="white"/>
<path d="M648.632 1V0.5H648.606L648.58 0.502733L648.632 1ZM529.557 52.4435L529.23 52.0646L529.216 52.0768L529.203 52.0899L529.557 52.4435ZM1128 1L1128.16 1.47393L1128 0.5V1ZM996.661 85.3387L996.322 84.9718L996.315 84.9783L996.308 84.9851L996.661 85.3387ZM627.282 454.718L627.597 455.106L627.617 455.09L627.635 455.072L627.282 454.718ZM514.368 501V501.5H514.394L514.42 501.497L514.368 501ZM81 501L80.6464 500.646L79.7929 501.5H81V501ZM648.58 0.502733C600.781 5.52105 565.819 20.5566 529.23 52.0646L529.883 52.8224C566.317 21.4475 601.087 6.49437 648.684 1.49727L648.58 0.502733ZM1046.43 0.5H648.632V1.5H1046.43V0.5ZM1081 0.5H1046.43V1.5H1081V0.5ZM1128 0.5H1081V1.5H1128V0.5ZM997.001 85.7055C1043.13 42.9945 1073.98 19.6895 1128.16 1.47393L1127.84 0.526067C1073.47 18.806 1042.5 42.2168 996.322 84.9718L997.001 85.7055ZM627.635 455.072L997.015 85.6922L996.308 84.9851L626.928 454.365L627.635 455.072ZM514.42 501.497C559.522 496.762 593.198 483.108 627.597 455.106L626.966 454.331C592.723 482.205 559.232 495.787 514.316 500.503L514.42 501.497ZM81 501.5H514.368V500.5H81V501.5ZM529.203 52.0899L80.6464 500.646L81.3536 501.354L529.91 52.7971L529.203 52.0899Z" fill="white"/>
</g>
<mask id="mask1_2_177" style="mask-type:alpha" maskUnits="userSpaceOnUse" x="150" y="500" width="1050" height="502">
<path fill-rule="evenodd" clip-rule="evenodd" d="M749.443 949.557C712.932 980.998 678.066 995.992 630.368 1001H232.567H198H151C205.277 982.752 236.189 959.394 282.339 916.661L651.718 547.282C686.04 519.343 719.623 505.725 764.632 501H1198L749.443 949.557Z" fill="#878787"/>
<path d="M630.368 1001V1001.5H630.394L630.42 1001.5L630.368 1001ZM749.443 949.557L749.77 949.935L749.784 949.923L749.797 949.91L749.443 949.557ZM151 1001L150.841 1000.53L151 1001.5V1001ZM282.339 916.661L282.678 917.028L282.685 917.022L282.692 917.015L282.339 916.661ZM651.718 547.282L651.403 546.894L651.383 546.91L651.365 546.928L651.718 547.282ZM764.632 501V500.5H764.606L764.58 500.503L764.632 501ZM1198 501L1198.35 501.354L1199.21 500.5H1198V501ZM630.42 1001.5C678.219 996.479 713.181 981.443 749.77 949.935L749.117 949.178C712.683 980.552 677.913 995.506 630.316 1000.5L630.42 1001.5ZM232.567 1001.5H630.368V1000.5H232.567V1001.5ZM198 1001.5H232.567V1000.5H198V1001.5ZM151 1001.5H198V1000.5H151V1001.5ZM281.999 916.294C235.873 959.005 205.022 982.311 150.841 1000.53L151.159 1001.47C205.532 983.194 236.505 959.783 282.678 917.028L281.999 916.294ZM651.365 546.928L281.985 916.308L282.692 917.015L652.072 547.635L651.365 546.928ZM764.58 500.503C719.478 505.238 685.802 518.892 651.403 546.894L652.034 547.669C686.277 519.795 719.768 506.213 764.684 501.497L764.58 500.503ZM1198 500.5H764.632V501.5H1198V500.5ZM749.797 949.91L1198.35 501.354L1197.65 500.646L749.09 949.203L749.797 949.91Z" fill="black"/>
</mask>
<g mask="url(#mask1_2_177)">
<path fill-rule="evenodd" clip-rule="evenodd" d="M668.443 949.557C631.932 980.998 597.066 995.992 549.368 1001H151.567H117H70C124.277 982.752 155.189 959.394 201.339 916.661L570.718 547.282C605.04 519.343 638.623 505.725 683.632 501H1117L668.443 949.557Z" fill="white"/>
<path d="M549.368 1001V1001.5H549.394L549.42 1001.5L549.368 1001ZM668.443 949.557L668.77 949.935L668.784 949.923L668.797 949.91L668.443 949.557ZM70 1001L69.8407 1000.53L70 1001.5V1001ZM201.339 916.661L201.678 917.028L201.685 917.022L201.692 917.015L201.339 916.661ZM570.718 547.282L570.403 546.894L570.383 546.91L570.365 546.928L570.718 547.282ZM683.632 501V500.5H683.606L683.58 500.503L683.632 501ZM1117 501L1117.35 501.354L1118.21 500.5H1117V501ZM549.42 1001.5C597.219 996.479 632.181 981.443 668.77 949.935L668.117 949.178C631.683 980.552 596.913 995.506 549.316 1000.5L549.42 1001.5ZM151.567 1001.5H549.368V1000.5H151.567V1001.5ZM117 1001.5H151.567V1000.5H117V1001.5ZM70 1001.5H117V1000.5H70V1001.5ZM200.999 916.294C154.873 959.005 124.022 982.311 69.8407 1000.53L70.1593 1001.47C124.532 983.194 155.505 959.783 201.678 917.028L200.999 916.294ZM570.365 546.928L200.985 916.308L201.692 917.015L571.072 547.635L570.365 546.928ZM683.58 500.503C638.478 505.238 604.802 518.892 570.403 546.894L571.034 547.669C605.277 519.795 638.768 506.213 683.684 501.497L683.58 500.503ZM1117 500.5H683.632V501.5H1117V500.5ZM668.797 949.91L1117.35 501.354L1116.65 500.646L668.09 949.203L668.797 949.91Z" fill="white"/>
</g>
<mask id="mask2_2_177" style="mask-type:alpha" maskUnits="userSpaceOnUse" x="632" y="800" width="416" height="202">
<path fill-rule="evenodd" clip-rule="evenodd" d="M869.348 980.422C854.928 992.999 841.158 998.997 822.321 1001H665.214H651.562H633C654.436 993.701 666.644 984.358 684.87 967.265L830.753 819.513C844.308 808.337 857.571 802.89 875.347 801H1046.5L869.348 980.422Z" fill="#878787"/>
<path d="M822.321 1001V1001.5H822.347L822.373 1001.5L822.321 1001ZM869.348 980.422L869.677 980.799L869.691 980.787L869.704 980.774L869.348 980.422ZM633 1001L632.839 1000.53L633 1001.5V1001ZM684.87 967.265L685.213 967.629L685.22 967.623L685.226 967.616L684.87 967.265ZM830.753 819.513L830.435 819.127L830.415 819.143L830.397 819.161L830.753 819.513ZM875.347 801V800.5H875.32L875.294 800.503L875.347 801ZM1046.5 801L1046.86 801.351L1047.7 800.5H1046.5V801ZM822.373 1001.5C841.314 999.483 855.18 993.443 869.677 980.799L869.02 980.046C854.677 992.555 841.003 998.511 822.268 1000.5L822.373 1001.5ZM665.214 1001.5H822.321V1000.5H665.214V1001.5ZM651.562 1001.5H665.214V1000.5H651.562V1001.5ZM633 1001.5H651.562V1000.5H633V1001.5ZM684.528 966.9C666.326 983.971 654.178 993.26 632.839 1000.53L633.161 1001.47C654.694 994.141 666.963 984.744 685.213 967.629L684.528 966.9ZM830.397 819.161L684.515 966.913L685.226 967.616L831.109 819.864L830.397 819.161ZM875.294 800.503C857.424 802.403 844.068 807.887 830.435 819.127L831.071 819.898C844.547 808.788 857.718 803.377 875.399 801.497L875.294 800.503ZM1046.5 800.5H875.347V801.5H1046.5V800.5ZM869.704 980.774L1046.86 801.351L1046.14 800.649L868.992 980.071L869.704 980.774Z" fill="black"/>
</mask>
<g mask="url(#mask2_2_177)">
<path fill-rule="evenodd" clip-rule="evenodd" d="M837.358 980.422C822.938 992.999 809.168 998.997 790.331 1001H633.224H619.572H601.01C622.446 993.701 634.654 984.358 652.88 967.265L798.763 819.513C812.318 808.337 825.581 802.89 843.357 801H1014.51L837.358 980.422Z" fill="white"/>
<path d="M790.331 1001V1001.5H790.357L790.383 1001.5L790.331 1001ZM837.358 980.422L837.687 980.799L837.701 980.787L837.714 980.774L837.358 980.422ZM601.01 1001L600.849 1000.53L601.01 1001.5V1001ZM652.88 967.265L653.223 967.629L653.23 967.623L653.236 967.616L652.88 967.265ZM798.763 819.513L798.445 819.127L798.425 819.143L798.407 819.161L798.763 819.513ZM843.357 801V800.5H843.33L843.304 800.503L843.357 801ZM1014.51 801L1014.87 801.351L1015.71 800.5H1014.51V801ZM790.383 1001.5C809.324 999.483 823.19 993.443 837.687 980.799L837.03 980.046C822.687 992.555 809.013 998.511 790.278 1000.5L790.383 1001.5ZM633.224 1001.5H790.331V1000.5H633.224V1001.5ZM619.572 1001.5H633.224V1000.5H619.572V1001.5ZM601.01 1001.5H619.572V1000.5H601.01V1001.5ZM652.538 966.9C634.336 983.971 622.188 993.26 600.849 1000.53L601.171 1001.47C622.704 994.141 634.973 984.744 653.223 967.629L652.538 966.9ZM798.407 819.161L652.525 966.913L653.236 967.616L799.119 819.864L798.407 819.161ZM843.304 800.503C825.434 802.403 812.078 807.887 798.445 819.127L799.081 819.898C812.557 808.788 825.728 803.377 843.409 801.497L843.304 800.503ZM1014.51 800.5H843.357V801.5H1014.51V800.5ZM837.714 980.774L1014.87 801.351L1014.15 800.649L837.002 980.071L837.714 980.774Z" fill="white"/>
</g>
</svg>
